<svg width="30" height="30" viewBox="0 0 30 30" fill="none" xmlns="http://www.w3.org/2000/svg">
<path d="M15 0C6.71566 0 0 6.71566 0 15C0 23.2843 6.71566 30 15 30C23.2843 30 30 23.2843 30 15C30 6.71566 23.2843 0 15 0Z" fill="#40B3E0"/>
<path d="M22.2986 8.6278L19.6193 22.1359C19.6193 22.1359 19.2447 23.0727 18.2142 22.623L12.0317 17.883L9.78354 16.7965L5.99908 15.5224C5.99908 15.5224 5.4183 15.3164 5.36205 14.8667C5.3058 14.4171 6.01783 14.1736 6.01783 14.1736L21.0619 8.27202C21.0619 8.27202 22.2985 7.72874 22.2985 8.62803" fill="white"/>
<path d="M11.5567 21.9844C11.5567 21.9844 11.3763 21.9675 11.1513 21.2555C10.9266 20.5436 9.78369 16.7966 9.78369 16.7966L18.8702 11.0263C18.8702 11.0263 19.3948 10.7078 19.3761 11.0263C19.3761 11.0263 19.4697 11.0826 19.1886 11.3448C18.9077 11.6072 12.0507 17.7709 12.0507 17.7709" fill="#D2E5F1"/>
<path d="M14.4023 19.7014L11.957 21.931C11.957 21.931 11.7657 22.0761 11.5566 21.9852L12.0249 17.8438" fill="#B5CFE4"/>
</svg>
