<svg width="30" height="30" viewBox="0 0 30 30" fill="none" xmlns="http://www.w3.org/2000/svg">
<path d="M15 30C23.2843 30 30 23.2843 30 15C30 6.71573 23.2843 0 15 0C6.71573 0 0 6.71573 0 15C0 23.2843 6.71573 30 15 30Z" fill="#4D76A1"/>
<path fill-rule="evenodd" clip-rule="evenodd" d="M14.4334 21.578H15.6108C15.6108 21.578 15.9664 21.539 16.1479 21.3432C16.3151 21.1635 16.3097 20.8261 16.3097 20.8261C16.3097 20.8261 16.2867 19.2464 17.0199 19.0137C17.7426 18.7846 18.6708 20.5405 19.6545 21.2157C20.3984 21.7267 20.9636 21.6146 20.9636 21.6146L23.5939 21.578C23.5939 21.578 24.9699 21.4932 24.3175 20.4114C24.264 20.3229 23.9375 19.6111 22.3618 18.1485C20.7125 16.6177 20.9334 16.8653 22.9201 14.2173C24.13 12.6047 24.6137 11.6201 24.4627 11.1985C24.3185 10.7969 23.4287 10.903 23.4287 10.903L20.4671 10.9215C20.4671 10.9215 20.2475 10.8915 20.0847 10.9888C19.9256 11.0843 19.8232 11.3068 19.8232 11.3068C19.8232 11.3068 19.3545 12.5547 18.7293 13.6159C17.4105 15.8553 16.8833 15.9735 16.6677 15.8345C16.1664 15.5104 16.2915 14.5326 16.2915 13.8379C16.2915 11.6677 16.6207 10.7629 15.6506 10.5287C15.3287 10.4509 15.0917 10.3995 14.2685 10.3912C13.2117 10.3803 12.3173 10.3944 11.8109 10.6426C11.474 10.8076 11.2141 11.1752 11.3724 11.1963C11.5681 11.2225 12.0114 11.3159 12.2465 11.6359C12.5499 12.0488 12.5393 12.9761 12.5393 12.9761C12.5393 12.9761 12.7136 15.5307 12.132 15.8481C11.7328 16.0658 11.1852 15.6214 10.0095 13.5897C9.40705 12.5491 8.95223 11.3987 8.95223 11.3987C8.95223 11.3987 8.86452 11.1838 8.7081 11.0688C8.51825 10.9295 8.253 10.8851 8.253 10.8851L5.43873 10.9035C5.43873 10.9035 5.01626 10.9153 4.86117 11.099C4.7232 11.2624 4.85021 11.6004 4.85021 11.6004C4.85021 11.6004 7.0535 16.7551 9.54824 19.3528C11.8358 21.7344 14.4334 21.578 14.4334 21.578Z" fill="white"/>
</svg>
