<svg width="35" height="35" viewBox="0 0 35 35" fill="none" xmlns="http://www.w3.org/2000/svg">
<g clip-path="url(#clip0_3_227)">
<path d="M9.25085 29.9759L9.82301 30.2588C12.2074 31.6727 14.8776 32.3326 17.548 32.3326C25.9405 32.3326 32.8071 25.5455 32.8071 17.2503C32.8071 13.2912 31.1857 9.42635 28.3248 6.59837C25.4636 3.7704 21.6488 2.16797 17.548 2.16797C9.15555 2.16797 2.28885 8.955 2.38428 17.3446C2.38428 20.1724 3.2426 22.9062 4.67309 25.2627L5.05454 25.8284L3.52876 31.39L9.25085 29.9759Z" fill="#00E676"/>
<path fill-rule="evenodd" clip-rule="evenodd" d="M24.9867 20.7384L26.0358 21.2097C26.2265 21.3039 26.3219 21.3982 26.3219 21.3982V22.0581L26.3215 22.0601C26.2262 22.5306 26.1309 23.0012 25.9405 23.3777C25.845 23.5663 25.6543 23.7549 25.4636 23.9434C25.3682 24.0376 25.2729 24.1083 25.1775 24.179C25.0821 24.2497 24.9868 24.3203 24.8914 24.4146L24.7006 24.6032C24.5935 24.7091 24.4864 24.7555 24.3624 24.8092C24.2656 24.8512 24.1585 24.8976 24.0331 24.9803C23.6515 25.1688 23.0794 25.3573 22.6025 25.3573H21.6489C21.5057 25.3101 21.3387 25.2865 21.1717 25.2629C21.0049 25.2394 20.8381 25.2158 20.6951 25.1688C18.1202 24.5089 15.8313 23.2835 13.8286 21.5866C13.704 21.4021 13.5388 21.2576 13.3596 21.1009C13.2643 21.0176 13.1649 20.9307 13.0657 20.8326L12.6842 20.4555C11.1582 19.0416 10.0138 17.4391 9.15551 15.6481L9.06008 15.3653C8.77393 14.7054 8.5832 13.9512 8.5832 13.1972C8.5832 12.1603 8.96465 11.1234 9.63225 10.275C9.72761 10.1807 9.79915 10.0864 9.87068 9.99216C9.94222 9.89791 10.0138 9.80365 10.1091 9.70932C10.2045 9.6622 10.3 9.59145 10.3954 9.52071C10.4907 9.45007 10.586 9.37942 10.6813 9.3323L10.7767 9.23811C10.8721 9.23811 10.9675 9.21453 11.0629 9.19095C11.1582 9.16736 11.2536 9.14378 11.349 9.14378H12.3981C12.6842 9.23811 12.8748 9.3323 13.0657 9.61514C13.3517 10.1807 14.4962 12.7258 14.5914 13.1972C14.6869 13.48 14.5914 13.857 14.4007 14.1399C14.3054 14.2341 14.2339 14.3519 14.1624 14.4697C14.0908 14.5875 14.0193 14.7054 13.9238 14.7997C13.6378 15.0824 13.2564 15.5538 13.2564 15.5538C13.161 15.6481 13.161 15.8366 13.161 16.0251C13.1974 16.0972 13.22 16.1555 13.2392 16.2053C13.2703 16.2857 13.2928 16.3439 13.3517 16.4022L13.4471 16.5907C13.9238 17.4391 14.5914 18.1932 15.259 18.8531C15.3544 18.9474 15.4736 19.0416 15.5928 19.1359C15.7121 19.2301 15.8313 19.3244 15.9266 19.4186C16.6897 20.1727 17.6433 20.7384 18.6923 21.2097L19.1692 21.3982C19.2646 21.4924 19.4553 21.5868 19.5506 21.5868H19.6461C19.8368 21.5868 20.0275 21.4924 20.1229 21.3039C21.4581 19.7957 21.5534 19.7015 21.5534 19.7015C21.7442 19.6072 21.9349 19.5128 22.221 19.5128C22.2688 19.5128 22.3164 19.5364 22.3641 19.56C22.4118 19.5836 22.4595 19.6072 22.5072 19.6072C23.4609 20.0785 24.9867 20.7384 24.9867 20.7384Z" fill="white"/>
</g>
<defs>
<clipPath id="clip0_3_227">
<rect width="35" height="35" fill="white"/>
</clipPath>
</defs>
</svg>
